<?xml version="1.0" standalone="no"?>
<!DOCTYPE svg PUBLIC "-//W3C//DTD SVG 20010904//EN"
 "http://www.w3.org/TR/2001/REC-SVG-20010904/DTD/svg10.dtd">
<svg version="1.0" xmlns="http://www.w3.org/2000/svg"
 width="2000.000000pt" height="2000.000000pt" viewBox="0 0 2000.000000 2000.000000"
 preserveAspectRatio="xMidYMid meet">

<g transform="translate(0.000000,2000.000000) scale(0.100000,-0.100000)"
fill="blue" stroke="none">
<path d="M9035 16088 c-85 -92 -164 -205 -219 -315 -91 -182 -126 -323 -133
-534 -9 -248 28 -421 133 -634 122 -248 343 -470 592 -594 89 -45 251 -97 357
-116 116 -21 333 -21 448 0 260 46 496 166 682 349 49 48 72 75 50 59 -165
-119 -364 -203 -560 -237 -116 -20 -327 -20 -441 -1 -634 111 -1094 658 -1094
1300 0 259 76 513 215 721 59 87 57 84 51 84 -2 0 -39 -37 -81 -82z"/>
<path d="M8677 10994 c-11 -11 -8 -2991 3 -3149 23 -328 91 -609 215 -890 140
-315 301 -551 545 -795 473 -475 1063 -738 1738 -776 l122 -7 3 1394 c2 1581
2 1678 -13 1844 -36 386 -166 782 -365 1109 -207 341 -529 666 -865 876 -320
200 -729 341 -1095 379 -154 16 -281 22 -288 15z"/>
<path d="M8480 2671 c-138 -27 -196 -191 -105 -299 35 -42 84 -62 150 -62 66
0 115 20 150 62 75 88 47 231 -54 282 -35 18 -98 25 -141 17z m117 -67 c53
-33 75 -107 50 -167 -44 -104 -205 -101 -245 5 -46 121 87 231 195 162z"/>
<path d="M10536 2669 c-86 -20 -136 -87 -136 -181 0 -108 75 -178 191 -178 32
0 77 7 99 16 l40 16 0 74 0 74 -30 0 c-30 0 -30 0 -30 -59 0 -67 -5 -71 -77
-71 -81 0 -133 51 -133 130 0 22 7 54 15 70 31 60 129 82 193 45 29 -18 33
-18 48 -3 9 9 13 21 10 27 -21 34 -124 56 -190 40z"/>
<path d="M7991 2649 c6 -12 38 -65 70 -117 56 -91 59 -100 59 -159 l0 -63 30
0 30 0 0 65 c0 62 3 68 70 180 l70 116 -32 -3 c-28 -3 -38 -12 -80 -83 -26
-44 -51 -81 -56 -83 -4 -1 -30 36 -57 83 -47 79 -52 85 -83 85 -30 0 -32 -2
-21 -21z"/>
<path d="M8800 2545 c0 -144 11 -184 62 -215 44 -27 140 -28 184 -1 52 32 64
72 64 215 l0 126 -30 0 -30 0 0 -120 c0 -161 -14 -190 -95 -190 -81 0 -95 29
-95 190 l0 120 -30 0 -30 0 0 -125z"/>
<path d="M9210 2490 l0 -180 29 0 c29 0 30 2 33 53 l3 52 51 3 51 3 36 -56
c31 -46 42 -55 67 -55 17 0 30 2 30 5 0 3 -16 28 -36 55 l-36 50 36 40 c30 33
36 48 36 84 0 90 -59 126 -205 126 l-95 0 0 -180z m215 105 c31 -30 32 -71 3
-102 -18 -20 -31 -23 -90 -23 l-68 0 0 75 0 75 65 0 c57 0 69 -3 90 -25z"/>
<path d="M9690 2645 c0 -24 2 -25 65 -25 l65 0 0 -155 0 -155 30 0 30 0 0 155
0 155 60 0 c57 0 60 1 60 25 l0 25 -155 0 -155 0 0 -25z"/>
<path d="M10073 2508 c-96 -216 -91 -198 -56 -198 24 0 32 7 51 45 l22 45 89
0 90 0 20 -45 c17 -39 24 -45 50 -45 17 0 31 2 31 3 0 2 -35 82 -78 178 -78
173 -79 174 -113 177 l-34 3 -72 -163z m144 15 c18 -42 33 -78 33 -80 0 -2
-31 -3 -70 -3 -38 0 -70 3 -70 7 0 14 65 161 69 157 2 -2 19 -38 38 -81z"/>
<path d="M10830 2490 l0 -180 125 0 125 0 0 25 c0 25 0 25 -95 25 l-95 0 0
155 0 155 -30 0 -30 0 0 -180z"/>
<path d="M11140 2490 l0 -180 30 0 30 0 0 180 0 180 -30 0 -30 0 0 -180z"/>
<path d="M11310 2491 l0 -181 30 0 29 0 3 125 3 124 100 -124 c84 -105 104
-125 128 -125 l27 0 0 180 0 180 -30 0 -30 0 0 -121 c0 -74 -4 -119 -10 -117
-5 2 -51 55 -102 118 -72 89 -99 116 -121 118 l-27 3 0 -180z"/>
<path d="M11730 2490 l0 -180 135 0 135 0 0 25 0 25 -105 0 -105 0 0 55 0 55
90 0 c89 0 90 0 90 25 0 25 -1 25 -90 25 l-90 0 0 50 0 50 100 0 100 0 0 25 0
25 -130 0 -130 0 0 -180z"/>
</g>
</svg>
